<svg xmlns="http://www.w3.org/2000/svg" width="512" height="512" viewBox="0 0 520 520" fill="none" role="img" aria-label="Novated Lease Guide">
<rect width="520" height="520" rx="96" fill="#0b5cab"/>
<g transform="translate(-4 146) scale(0.93)"><defs>
  <mask id="fNote" maskUnits="userSpaceOnUse" x="0" y="0" width="520" height="260"><rect width="520" height="260" fill="#fff"/><circle cx="112" cy="62" r="56.0" fill="#000"/><circle cx="84" cy="92" r="56.0" fill="#000"/><path d="M103 204 A47 47 0 0 1 197 204 A40.5 40.5 0 0 0 116 204 Z" fill="#000" stroke="#000" stroke-width="32.0" stroke-linejoin="round"/><path d="M447 204 A47 47 0 0 0 353 204 A40.5 40.5 0 0 1 434 204 Z" fill="#000" stroke="#000" stroke-width="32.0" stroke-linejoin="round"/><path d="M110 204 C100 204 94 206 86 206 C70 206 62 196 64 184 L68 168 C70 158 78 152 90 152 C150 150 200 122 250 102 C300 84 380 84 440 118 C456 128 472 148 486 166 L500 176 C514 186 514 204 502 212 C494 218 484 218 476 214 C462 210 450 206 441 204" fill="none" stroke="#000" stroke-width="40.0" stroke-linecap="round" stroke-linejoin="round"/></mask>
  <mask id="fBack" maskUnits="userSpaceOnUse" x="0" y="0" width="520" height="260"><rect width="520" height="260" fill="#fff"/><circle cx="84" cy="92" r="56.0" fill="#000"/><path d="M103 204 A47 47 0 0 1 197 204 A40.5 40.5 0 0 0 116 204 Z" fill="#000" stroke="#000" stroke-width="32.0" stroke-linejoin="round"/><path d="M447 204 A47 47 0 0 0 353 204 A40.5 40.5 0 0 1 434 204 Z" fill="#000" stroke="#000" stroke-width="32.0" stroke-linejoin="round"/><path d="M110 204 C100 204 94 206 86 206 C70 206 62 196 64 184 L68 168 C70 158 78 152 90 152 C150 150 200 122 250 102 C300 84 380 84 440 118 C456 128 472 148 486 166 L500 176 C514 186 514 204 502 212 C494 218 484 218 476 214 C462 210 450 206 441 204" fill="none" stroke="#000" stroke-width="40.0" stroke-linecap="round" stroke-linejoin="round"/></mask>
  <mask id="fFront" maskUnits="userSpaceOnUse" x="0" y="0" width="520" height="260"><rect width="520" height="260" fill="#fff"/><path d="M103 204 A47 47 0 0 1 197 204 A40.5 40.5 0 0 0 116 204 Z" fill="#000" stroke="#000" stroke-width="32.0" stroke-linejoin="round"/><path d="M447 204 A47 47 0 0 0 353 204 A40.5 40.5 0 0 1 434 204 Z" fill="#000" stroke="#000" stroke-width="32.0" stroke-linejoin="round"/><path d="M110 204 C100 204 94 206 86 206 C70 206 62 196 64 184 L68 168 C70 158 78 152 90 152 C150 150 200 122 250 102 C300 84 380 84 440 118 C456 128 472 148 486 166 L500 176 C514 186 514 204 502 212 C494 218 484 218 476 214 C462 210 450 206 441 204" fill="none" stroke="#000" stroke-width="40.0" stroke-linecap="round" stroke-linejoin="round"/></mask>
</defs>
<g mask="url(#fNote)"><g transform="translate(200 74) rotate(-10)"><rect x="-75" y="-42" width="150" height="84" rx="12" fill="none" stroke="#ffffff" stroke-width="14.0"/></g></g>
<g mask="url(#fBack)"><circle cx="112" cy="62" r="38" fill="none" stroke="#ffffff" stroke-width="20.0"/></g>
<g mask="url(#fFront)"><circle cx="84" cy="92" r="38" fill="none" stroke="#ffffff" stroke-width="20.0"/></g>
<path d="M103 204 A47 47 0 0 1 197 204 A40.5 40.5 0 0 0 116 204 Z" fill="#ffffff" stroke="#ffffff" stroke-width="6.0" stroke-linejoin="round"/>
<path d="M447 204 A47 47 0 0 0 353 204 A40.5 40.5 0 0 1 434 204 Z" fill="#ffffff" stroke="#ffffff" stroke-width="6.0" stroke-linejoin="round"/>
<path d="M110 204 C100 204 94 206 86 206 C70 206 62 196 64 184 L68 168 C70 158 78 152 90 152 C150 150 200 122 250 102 C300 84 380 84 440 118 C456 128 472 148 486 166 L500 176 C514 186 514 204 502 212 C494 218 484 218 476 214 C462 210 450 206 441 204" fill="none" stroke="#ffffff" stroke-width="24.0" stroke-linecap="round" stroke-linejoin="round"/>
</g></svg>
